<svg xmlns="http://www.w3.org/2000/svg" version="1.1" xmlns:xlink="http://www.w3.org/1999/xlink" xmlns:svgjs="http://svgjs.dev/svgjs" width="1500" height="1119" viewBox="0 0 1500 1119"><g transform="matrix(1,0,0,1,0.3659728889398366,0.45303643724696485)"><svg viewBox="0 0 331 247" data-background-color="#6b3245" preserveAspectRatio="xMidYMid meet" height="1119" width="1500" xmlns="http://www.w3.org/2000/svg" xmlns:xlink="http://www.w3.org/1999/xlink"><g id="tight-bounds" transform="matrix(1,0,0,1,-0.0807580174927125,-0.09999999999999432)"><svg viewBox="0 0 331.1615160349854 247.2" height="247.2" width="331.1615160349854"><g><svg viewBox="0 0 331.1615160349854 247.2" height="247.2" width="331.1615160349854"><g><svg viewBox="0 0 331.1615160349854 247.2" height="247.2" width="331.1615160349854"><g id="textblocktransform"><svg viewBox="0 0 331.1615160349854 247.2" height="247.2" width="331.1615160349854" id="textblock"><g><svg viewBox="0 0 331.1615160349854 247.2" height="247.2" width="331.1615160349854"><g transform="matrix(1,0,0,1,0,0)"><svg width="331.1615160349854" viewBox="1.15 -34.3 45.95 34.3" height="247.2" data-palette-color="#fb6968"><path d="M42.25 0L34.55 0 38.1-25.25 37.85-25.25 25.4 0 17.3 0 11.95-25.25 11.7-25.25 8.15 0 1.15 0 6-34.3 18.45-34.3 23.25-11.65 23.45-11.65 34.65-34.3 47.1-34.3 42.25 0Z" opacity="1" transform="matrix(1,0,0,1,0,0)" fill="#fb6968" class="wordmark-text-0" data-fill-palette-color="primary" id="text-0"></path></svg></g></svg></g></svg></g></svg></g></svg></g><defs></defs></svg><rect width="331.1615160349854" height="247.2" fill="none" stroke="none" visibility="hidden"></rect></g></svg></g></svg>